<svg id="mc-environment-sm" xmlns="http://www.w3.org/2000/svg" xml:space="preserve" version="1.1" style="shape-rendering:geometricPrecision; text-rendering:geometricPrecision; image-rendering:optimizeQuality; fill-rule:evenodd; clip-rule:evenodd"
viewBox="0 0 47.787 63.113">
 <defs>
  <style type="text/css">
    #mc-environment-sm .fil1 {fill:currentColor}
    #mc-environment-sm .fil0 {fill:currentColor; fill-rule:nonzero}
  </style>
 </defs>
 <g id="Layer_x0020_1">
  <metadata id="CorelCorpID_0Corel-Layer"/>
  <path class="fil0" d="M38.506 20.818c-0.491,0.326 -1.153,0.191 -1.478,-0.3 -0.325,-0.491 -0.19,-1.153 0.301,-1.478 0.958,-0.635 1.697,-1.511 2.163,-2.513 0.467,-1.005 0.66,-2.138 0.526,-3.282 -0.196,-1.672 -1.049,-3.106 -2.271,-4.072 -1.222,-0.966 -2.816,-1.465 -4.493,-1.269 -0.942,0.11 -1.83,0.436 -2.602,0.936 -0.776,0.503 -1.438,1.182 -1.924,1.998 -0.302,0.505 -0.956,0.669 -1.461,0.367 -0.505,-0.302 -0.67,-0.956 -0.368,-1.461 0.346,-0.581 0.758,-1.111 1.225,-1.581 -0.248,-0.049 -0.479,-0.187 -0.643,-0.405l-2.537 -3.372c-0.352,-0.471 -0.257,-1.138 0.213,-1.491 0.471,-0.353 1.138,-0.257 1.491,0.213l2.537 3.372c0.143,0.191 0.212,0.413 0.213,0.634l0.093 -0.061c0.668,-0.433 1.398,-0.769 2.169,-0.995 -0.193,-0.164 -0.328,-0.396 -0.365,-0.666l-0.586 -4.179c-0.08,-0.584 0.327,-1.122 0.911,-1.203 0.583,-0.08 1.122,0.327 1.202,0.911l0.586 4.179c0.032,0.235 -0.014,0.462 -0.12,0.655 0.854,-0.071 1.691,-0.008 2.489,0.173 -0.089,-0.235 -0.095,-0.502 0.002,-0.754l1.513 -3.94c0.21,-0.549 0.825,-0.824 1.373,-0.614 0.549,0.21 0.824,0.825 0.614,1.374l-1.513 3.94c-0.085,0.223 -0.237,0.401 -0.424,0.519 0.617,0.279 1.196,0.632 1.725,1.05 0.126,0.1 0.249,0.203 0.369,0.31 0.036,-0.251 0.162,-0.49 0.371,-0.666l3.233 -2.713c0.452,-0.378 1.125,-0.319 1.503,0.133 0.378,0.452 0.318,1.126 -0.134,1.504l-3.232 2.713c-0.182,0.153 -0.4,0.234 -0.62,0.247 0.494,0.66 0.893,1.398 1.174,2.198 0.153,-0.201 0.378,-0.348 0.646,-0.399l4.142 -0.808c0.579,-0.111 1.138,0.269 1.249,0.848 0.111,0.579 -0.269,1.138 -0.848,1.249l-4.142 0.807c-0.232,0.045 -0.461,0.01 -0.659,-0.084 0.007,0.053 0.014,0.107 0.02,0.161 0.092,0.788 0.069,1.572 -0.06,2.332 0.229,-0.101 0.495,-0.122 0.753,-0.039l4.015 1.3c0.56,0.18 0.869,0.78 0.689,1.341 -0.18,0.56 -0.78,0.868 -1.341,0.689l-4.014 -1.301c-0.228,-0.073 -0.414,-0.215 -0.542,-0.396 -0.065,0.166 -0.134,0.33 -0.209,0.491 -0.277,0.595 -0.623,1.157 -1.035,1.672 0.252,0.023 0.496,0.135 0.682,0.335l2.882 3.083c0.402,0.431 0.377,1.106 -0.054,1.507 -0.431,0.402 -1.106,0.377 -1.507,-0.054l-2.883 -3.083c-0.161,-0.173 -0.253,-0.386 -0.278,-0.605 -0.232,0.193 -0.476,0.375 -0.731,0.543z"/>
  <g id="_1786820735920">
   <path class="fil1" d="M17.457 53.246l4.901 0 0 6.423 -4.901 0 0 -6.423zm-6.398 -31.072c1.514,-1.941 2.67,-3.516 4.303,-5.46 1.526,-1.816 2.963,-4.166 4.576,-5.377 1.738,1.548 7.865,9.084 8.96,11.244 -1.78,0.002 -3.241,0.107 -4.436,0.55 -0.543,2.02 0.146,2.454 1.311,3.673l7.814 9.078c-8.078,0.674 -9.851,-1.003 -3.96,7.357 1.533,2.175 3.415,4.41 4.516,6.534l-28.468 0.11c1.531,-3.419 8.924,-10.37 7.703,-13.531l-7.148 -0.451 7.574 -8.903c1.074,-1.182 2.111,-1.846 1.548,-3.809 -0.748,-0.316 -1.003,-0.316 -2.094,-0.535l-0.927 -0.162c-0.143,-0.03 -0.312,-0.068 -0.439,-0.096l-0.833 -0.222zm-5.984 3.169c1.778,0.748 1.797,0.593 4.176,0.596 -0.943,3.108 -10.464,9.969 -8.762,12.771 1.742,1.033 4.549,0.644 7.425,0.651 -3.086,6.482 -10.335,11.419 -7.1,13.424 1.96,1.075 9.473,0.433 12.474,0.49 0,2.86 -0.379,7.053 0.446,9.418 5.105,0.613 7.226,0.492 12.361,0.036 0.816,-4.295 0.499,-4.946 0.432,-9.483 14.207,0 15.67,0.86 10.813,-6.005 -1.668,-2.358 -4.18,-5.272 -5.436,-7.884 1.329,0 2.772,0.052 4.079,0.031 7.12,-0.118 2.736,-3.812 -0.36,-7.198 -1.171,-1.281 -4.758,-5.108 -5.027,-6.251 2.16,-0.004 2.645,0.051 4.148,-0.655 0.326,-2.442 -4.112,-7.16 -6.571,-10.196 -1.477,-1.822 -2.269,-2.831 -3.668,-4.594 -5.287,-6.66 -4.829,-5.648 -12.79,4.621 -1.764,2.275 -7,7.417 -6.64,10.228z"/>
  </g>
 </g>
</svg>
