<svg id="mc-system-sm" xmlns="http://www.w3.org/2000/svg" xml:space="preserve"  version="1.1" style="shape-rendering:geometricPrecision; text-rendering:geometricPrecision; image-rendering:optimizeQuality; fill-rule:evenodd; clip-rule:evenodd"
viewBox="0 0 50.202 58.792">
 <defs>
  <style type="text/css">
    #mc-system-sm .str0 {stroke: currentColor;stroke-width:0.842;stroke-miterlimit:2.61313}
    #mc-system-sm .fil0 {fill: currentColor}
  </style>
 </defs>
 <g id="Layer_x0020_1">
  <metadata id="CorelCorpID_0Corel-Layer"/>
  <path class="fil0 str0" d="M25.096 3.866c1.348,0.611 5.538,6.246 15.926,7.557 5.571,0.702 5.265,0.629 5.331,6.442 0.158,14.034 -1.026,25.636 -13.369,33.498 -1.138,0.726 -6.457,3.592 -7.887,3.591 -1.476,0 -6.836,-2.902 -8.035,-3.672 -7.743,-4.97 -11.824,-12.013 -12.876,-22.286 -0.393,-3.839 -0.387,-7.466 -0.344,-11.358 0.066,-5.864 0.014,-5.491 5.507,-6.235 4.694,-0.636 9.057,-2.349 12.64,-5.03 1.356,-1.014 2.426,-2.191 3.107,-2.507zm-0.759 -3.353c-2.695,0.613 -4.228,4.95 -12.939,7.061 -2.008,0.487 -4.018,0.44 -5.949,0.83 -4.709,0.952 -4.952,4.999 -4.999,8.328 -0.063,4.493 -0.061,8.685 0.416,13.121 0.677,6.285 2.655,12.115 6.323,17.023 0.543,0.727 0.965,1.163 1.544,1.852 1.75,2.08 4.555,4.298 7.391,5.979 1.785,1.057 7.337,4.045 9.792,3.624 2.218,-0.381 7.534,-3.195 9.142,-4.224 13.96,-8.936 15.085,-23.165 14.651,-38.962 -0.261,-9.54 -8.362,-5.048 -16.838,-9.814 -4.652,-2.616 -5.709,-5.46 -8.534,-4.818z"/>
  <path class="fil0" d="M23.641 18.514c6.437,-0.896 11.588,3.794 12.374,9.258 0.947,6.586 -3.767,11.767 -9.268,12.57 -6.586,0.961 -11.773,-3.77 -12.572,-9.27 -0.974,-6.705 3.803,-11.77 9.466,-12.558zm-12.93 12.267c0.638,7.447 7.376,13.756 15.674,13.027 7.501,-0.659 13.832,-7.312 13.098,-15.675 -0.659,-7.514 -7.313,-13.833 -15.675,-13.099 -7.572,0.665 -13.819,7.322 -13.097,15.747z"/>
  <path class="fil0" d="M22.531 31.583c-0.563,-0.662 -2.518,-3.2 -4.122,-1.824 -1.8,1.545 1.014,3.559 1.674,4.222 2.915,2.924 2.592,2.406 7.736,-2.743 1.185,-1.186 2.234,-2.204 3.405,-3.393 1.96,-1.992 0.284,-4.117 -1.575,-3.176 -1.213,0.614 -5.502,5.638 -7.118,6.914z"/>
 </g>
</svg>
