
<svg id="mc-people-sm" xmlns="http://www.w3.org/2000/svg" xml:space="preserve"  version="1.1" style="shape-rendering:geometricPrecision; text-rendering:geometricPrecision; image-rendering:optimizeQuality; fill-rule:evenodd; clip-rule:evenodd"
viewBox="0 0 55.547 40.826">
 <defs>
  <style type="text/css">
    #mc-people-sm .fil0 {fill: currentColor}
  </style>
 </defs>
 <g id="Layer_x0020_1">
  <metadata id="CorelCorpID_0Corel-Layer"/>
  <path class="fil0" d="M16.985 17.862c1.888,0 3.597,-0.766 4.834,-2.003 1.236,-1.236 2.002,-2.947 2.002,-4.834 0,-1.888 -0.765,-3.598 -2.001,-4.834 -1.237,-1.237 -2.947,-2.003 -4.835,-2.003 -1.888,0 -3.599,0.766 -4.835,2.003 -1.236,1.236 -2.003,2.946 -2.003,4.834 0,1.887 0.767,3.598 2.003,4.834 1.236,1.237 2.947,2.003 4.835,2.003zm33.104 -5.334c0.002,3.525 0.003,5.414 -0.09,6.243l-0.209 1.855 -5.455 0c-0.705,0.395 -1.459,0.717 -2.251,0.95 3.225,0.608 6.118,2.031 8.383,4.013 3.139,2.748 5.08,6.56 5.08,10.784 0,0.436 -0.027,0.906 -0.078,1.403 -0.049,0.476 -0.123,0.941 -0.217,1.391l-0.348 1.659 -21.579 0 -4.244 0 -28.439 0 -0.347 -1.659c-0.094,-0.45 -0.167,-0.915 -0.217,-1.391 -0.05,-0.497 -0.078,-0.967 -0.078,-1.403 0,-4.224 1.941,-8.036 5.08,-10.784 2.323,-2.034 5.306,-3.478 8.632,-4.058 -1.722,-0.536 -3.263,-1.484 -4.507,-2.727 -1.99,-1.99 -3.222,-4.742 -3.222,-7.779 0,-3.038 1.232,-5.789 3.222,-7.779 1.99,-1.99 4.742,-3.222 7.78,-3.222 3.037,0 5.789,1.232 7.779,3.222 1.87,1.87 3.07,4.411 3.208,7.23 0.139,-2.819 1.34,-5.36 3.209,-7.23 0.689,-0.689 1.469,-1.287 2.319,-1.774l-0.052 -0.169 1.505 -0.526c0.417,-0.164 0.848,-0.302 1.288,-0.414l0.002 -0.001 0.019 -0.005 0.019 -0.005 0.017 -0.004 0.004 -0.001 0.02 -0.006c0.379,-0.099 0.782,-0.181 1.203,-0.24 0.471,-0.066 0.931,-0.101 1.378,-0.101 0.418,0 0.845,0.027 1.274,0.078 0.251,0.03 0.51,0.072 0.775,0.126l0.019 0.003 0.007 0.002 0.012 0.002 0.018 0.004c2.217,0.418 4.2,1.5 5.731,3.031 0.31,0.31 0.602,0.638 0.873,0.984l0.004 0.004 0.02 0.026c0.739,0.906 1.337,1.916 1.756,2.983 0.29,0.742 0.498,1.512 0.61,2.295l0.055 0.182 -0.031 0.011c0.047,0.378 0.07,0.758 0.07,1.14l-0.007 1.657zm-21.94 4.121c-0.023,-0.907 -0.038,-2.149 -0.044,-3.83 -0.067,-0.409 -0.112,-0.824 -0.133,-1.246 -0.138,2.82 -1.339,5.361 -3.209,7.231 -1.243,1.243 -2.784,2.19 -4.506,2.727 2.815,0.491 5.384,1.602 7.516,3.165 1.259,-0.922 2.673,-1.687 4.202,-2.26 1.139,-0.427 2.338,-0.747 3.579,-0.947 -0.688,-0.224 -1.347,-0.515 -1.969,-0.863l-5.122 0 -0.204 -1.855c-0.046,-0.413 -0.084,-1.078 -0.11,-2.122zm17.648 -5.722c-0.417,0.049 -0.835,0.074 -1.251,0.074 -2.44,0 -4.703,-0.803 -6.537,-2.159 -1.222,-0.904 -2.249,-2.059 -3.01,-3.39 -0.311,0.222 -0.603,0.469 -0.873,0.739 -1.236,1.236 -2.003,2.946 -2.003,4.834 0,1.887 0.767,3.598 2.003,4.834 1.236,1.237 2.946,2.003 4.834,2.003 1.888,0 3.599,-0.766 4.835,-2.003 0.98,-0.98 1.666,-2.258 1.907,-3.686l0.003 -0.022 0.006 -0.032 0.008 -0.053 0.001 0 0.007 -0.054 0.004 -0.031 0.003 -0.022 0.008 -0.055 0 -0.008 0.018 -0.154 0.002 -0.019 0.004 -0.035 0.005 -0.05 0 -0.005 0.004 -0.054 0.003 -0.029 0.001 -0.027 0.004 -0.055 0 -0.004 0.003 -0.051 0.003 -0.037 0.001 -0.018 0.002 -0.055 0.001 -0.014 0.001 -0.042 0.001 -0.046 0 -0.009 0.002 -0.056 0 -0.023 0 -0.033 0 -0.055 0 -0.038 0 -0.039 0 -0.021zm-6.663 -6.737c0.386,0.498 0.84,0.941 1.348,1.317 1.083,0.802 2.424,1.289 3.88,1.327 -0.176,-0.226 -0.365,-0.441 -0.567,-0.643 -0.985,-0.986 -2.272,-1.672 -3.709,-1.911l-0.012 -0.002 -0.066 -0.011 -0.007 0 -0.059 -0.01 -0.026 -0.003 -0.04 -0.006 -0.045 -0.005 -0.021 -0.003 -0.065 -0.007 -0.002 -0.001 -0.067 -0.007 -0.017 -0.002 -0.05 -0.005 -0.036 -0.003 -0.031 -0.003 -0.056 -0.004 -0.012 -0.001 -0.068 -0.005 -0.007 0 -0.06 -0.004 -0.027 -0.001 -0.041 -0.002 -0.047 -0.002 -0.022 0 -0.066 -0.003 -0.002 0zm-8.297 23.435l0.035 0.044 0.016 0.019 0.02 0.025 0.033 0.044 0.035 0.045 0.03 0.037 0.005 0.007 0.033 0.045 0.034 0.044c1.57,2.072 2.575,4.507 2.827,7.134l0.009 0.092 0.007 0.093 0.008 0.092 0.003 0.045 0.004 0.048 0.006 0.093 0.003 0.054 0.002 0.039 0.005 0.094 0.003 0.063 0.001 0.03 0.004 0.093 0.002 0.073 0 0.02 0.003 0.094 0.001 0.084 0 0.009 0.002 0.095 0 0.093 0 0.021 0 0.02 -0.002 0.166 0 0.021 -0.001 0.021 0 0.021 -0.001 0.019 17.416 0 0.003 -0.289c0,-2.977 -1.394,-5.687 -3.648,-7.66 -2.329,-2.038 -5.571,-3.3 -9.172,-3.3 -1.841,0 -3.579,0.325 -5.14,0.911 -0.921,0.345 -1.789,0.783 -2.586,1.301zm-3.16 2.699c-0.392,-0.502 -0.831,-0.976 -1.311,-1.418l-0.205 -0.189 -0.006 -0.004c-2.328,-2.038 -5.571,-3.3 -9.171,-3.3 -3.601,0 -6.843,1.262 -9.172,3.3 -2.253,1.973 -3.648,4.683 -3.648,7.66l0.004 0.289 25.632 0 0 -0.005 0 -0.016 0.001 -0.016 0 -0.016 0.001 -0.033 0 -0.017 0.001 -0.05 0 -0.017 0 -0.016 0.001 -0.034 0 -0.017 0 -0.017 0 -0.017 0 -0.018 0 -0.066 -0.001 -0.066 0 -0.007 -0.002 -0.059 -0.001 -0.066 0 -0.014 -0.002 -0.052 -0.002 -0.065 -0.002 -0.022 -0.002 -0.045 -0.021 -0.325 -0.004 -0.043 -0.001 -0.023c-0.151,-1.658 -0.732,-3.217 -1.65,-4.587l-0.037 -0.057 -0.001 0 -0.155 -0.222 -0.002 -0.002 -0.038 -0.053 -0.04 -0.055 -0.002 -0.002 -0.039 -0.052 -0.041 -0.055 -0.002 -0.003 -0.039 -0.051 -0.042 -0.054 -0.001 -0.003z"/>
 </g>
</svg>
